<svg xmlns="http://www.w3.org/2000/svg" width="800" height="600" style="width:100%;height:100%;transform:translate3d(0,0,0);content-visibility:visible"><defs><clipPath id="a"><path d="M0 0h800v600H0z"/></clipPath><clipPath id="b"><path d="M0 0h375v260H0z"/></clipPath><clipPath id="c"><path d="M0 0h169v203H0z"/></clipPath></defs><g clip-path="url(#a)"><g clip-path="url(#b)" style="display:block" transform="matrix(2.13333 0 0 2.3077 0 -22.667)"><g clip-path="url(#c)" style="display:block" transform="matrix(.39 0 0 .39 243.935 54.855)"><path fill="none" stroke="#000" stroke-miterlimit="10" d="M65.152-77.502V77.502c0 6.601-5.4 12-12 12H-53.153c-6.6 0-11.999-5.399-11.999-12V-77.502c0-6.6 5.399-12 11.999-12H53.152c6.6 0 12 5.4 12 12z" style="display:block" transform="translate(82.106 101.993)"/><path fill="#EFEFEF" d="M27.743 24.125h-55.486a3.425 3.425 0 0 1-3.415-3.415v-41.42a3.425 3.425 0 0 1 3.415-3.415h55.486a3.425 3.425 0 0 1 3.415 3.415v41.42a3.425 3.425 0 0 1-3.415 3.415z" style="display:block" transform="translate(124.854 47.298)"/><g style="display:block"><path d="M105.005 44.549c1.344-10.946 11.341-18.758 22.287-17.414 10.946 1.344 18.757 11.342 17.413 22.288-1.344 10.945-11.341 18.756-22.287 17.412-10.946-1.344-18.757-11.341-17.413-22.286zm32.991 4.05c.89-7.245-4.282-13.865-11.528-14.754-7.245-.89-13.865 4.282-14.754 11.527-.89 7.246 4.282 13.864 11.528 14.753 7.245.89 13.865-4.28 14.754-11.525z"/><path fill="#1F5E77" d="m126.468 33.845.824-6.71a20 20 0 0 1 17.414 22.288l-6.71-.824a13.247 13.247 0 0 0-5.45-12.392 13.27 13.27 0 0 0-6.078-2.362z"/><path fill="#FFF" d="m110.684 61.1 4.792-4.768a13.113 13.113 0 0 0 7.765 3.794c7.246.89 13.865-4.282 14.754-11.527l6.71.824c-1.344 10.945-11.341 18.756-22.287 17.412-4.492-.552-8.548-2.534-11.734-5.735z"/></g><path d="M55.563 21.348H-55.562a3.425 3.425 0 0 1-3.415-3.415v-35.866a3.425 3.425 0 0 1 3.415-3.414H55.563a3.424 3.424 0 0 1 3.414 3.414v35.866a3.425 3.425 0 0 1-3.414 3.415z" style="display:block" transform="translate(81.945 162.591)"/><path fill="#FFF" d="M15.117-3.431V3.43h-30.234V-3.43h30.234z" style="display:block" transform="matrix(1 0 0 .57 43.618 160.071)"/><path fill="#FFF" d="M15.117-3.431V3.43h-30.234V-3.43h30.234z" style="display:block" transform="matrix(1 0 0 .57 80.368 160.071)"/><path fill="#FFF" d="M15.117-3.431V3.43h-30.234V-3.43h30.234z" style="display:block" transform="matrix(1 0 0 .57 43.618 170.071)"/><path fill="#FFF" d="M15.117-3.431V3.43h-30.234V-3.43h30.234z" style="display:block" transform="matrix(1 0 0 .57 80.368 170.071)"/><path fill="#FFF" d="M15.117-3.431V3.43h-30.234V-3.43h30.234z" style="display:block" transform="matrix(1 0 0 .57 117.118 170.071)"/><path fill="#FFF" d="M15.117-3.431V3.43h-30.234V-3.43h30.234z" style="display:block" transform="matrix(1 0 0 .57 117.118 160.071)"/><path fill="#FFF" d="M15.117-3.431V3.43h-30.234V-3.43h30.234z" style="display:block" transform="translate(43.618 149.432)"/><path fill="#FFF" d="M15.117-3.431V3.43h-30.234V-3.43h30.234z" style="display:block" transform="translate(80.368 149.432)"/><path fill="#FFF" d="M15.117-3.431V3.43h-30.234V-3.43h30.234z" style="display:block" transform="translate(117.118 149.432)"/><path fill="#AAFFFA" d="M55.563 26.731H-55.562a3.425 3.425 0 0 1-3.415-3.415v-46.632a3.425 3.425 0 0 1 3.415-3.415H55.563a3.424 3.424 0 0 1 3.414 3.415v46.632a3.424 3.424 0 0 1-3.414 3.415z" style="display:block" transform="translate(81.945 107.72)"/><path fill="#1F5E77" d="M-58.977-2.392s7.513-14.52 14.697-9.293c7.185 5.228 3.308 9.874 11.861 9.293 8.553-.581 8.666-9.811 17.219-9.811s7.481 9.21 16.27 8.488c8.682-.713 7.713-6.54 14.179-6.54 6.749 0 10.118 4.253 12.238 6.96C32.301 2.849 41.499.814 44.235-8.188c2.737-9.002 14.742-8.274 14.742-8.274v32.938H-58.977V-2.392z" style="display:block" transform="translate(81.945 117.974)"/><g style="display:block"><path fill="#1F5E77" d="M64.172 38.044H31.086a1.237 1.237 0 0 1-1.234-1.234v-1.235c0-.679.555-1.235 1.234-1.235h33.086c.679 0 1.234.556 1.234 1.235v1.235c0 .679-.555 1.234-1.234 1.234zM28.002 36.192a2.517 2.517 0 1 1-5.034 0 2.517 2.517 0 0 1 5.034 0zM84.834 38.044h-8.417c-.68 0-1.235-.555-1.235-1.234v-1.235c0-.679.555-1.235 1.235-1.235h8.417c.679 0 1.234.556 1.234 1.235v1.235c0 .679-.555 1.234-1.234 1.234zM64.172 50.095H31.086a1.237 1.237 0 0 1-1.234-1.234v-1.234c0-.679.555-1.234 1.234-1.234h33.086c.679 0 1.234.555 1.234 1.234v1.234c0 .679-.555 1.234-1.234 1.234zM28.002 48.244a2.517 2.517 0 1 1-5.034 0 2.517 2.517 0 0 1 5.034 0zM84.834 50.095h-8.417c-.68 0-1.235-.555-1.235-1.234v-1.234c0-.679.555-1.234 1.235-1.234h8.417c.679 0 1.234.555 1.234 1.234v1.234c0 .679-.555 1.234-1.234 1.234zM64.172 63.009H31.086a1.238 1.238 0 0 1-1.234-1.234V60.54c0-.679.555-1.235 1.234-1.235h33.086c.679 0 1.234.556 1.234 1.235v1.235c0 .678-.555 1.234-1.234 1.234zM28.002 61.158a2.517 2.517 0 1 1-5.034 0 2.517 2.517 0 0 1 5.034 0zM84.834 63.009h-8.417c-.68 0-1.235-.556-1.235-1.234V60.54c0-.679.555-1.235 1.235-1.235h8.417c.679 0 1.234.556 1.234 1.235v1.235c0 .678-.555 1.234-1.234 1.234z"/></g></g><g style="display:block"><path d="M99.787 262.187a.5.5 0 0 1-.5-.5v-47a.5.5 0 0 1 1 0v47a.5.5 0 0 1-.5.5z"/><path d="M102.245 265.187h-62a6.508 6.508 0 0 1-6.5-6.5v-38c0-3.584 2.916-6.5 6.5-6.5h62c3.584 0 6.5 2.916 6.5 6.5v38c0 3.584-2.916 6.5-6.5 6.5zm-62-50a5.506 5.506 0 0 0-5.5 5.5v38c0 3.032 2.467 5.5 5.5 5.5h62c3.033 0 5.5-2.468 5.5-5.5v-38c0-3.032-2.467-5.5-5.5-5.5h-62z"/><path d="M81.245 214.941a.5.5 0 0 1-.5-.5v-6.754c0-1.379-1.122-2.5-2.5-2.5h-14a2.503 2.503 0 0 0-2.5 2.5v6.754a.5.5 0 0 1-1 0v-6.754c0-1.93 1.57-3.5 3.5-3.5h14c1.93 0 3.5 1.57 3.5 3.5v6.754a.5.5 0 0 1-.5.5z"/><path fill="#1F5E77" d="M58.244 235.686a1 1 0 0 0-.998 1v4.002a1 1 0 0 0 .998 1h10a1 1 0 0 0 1-1v-4.002a1 1 0 0 0-1-1h-10z"/><path d="M68.245 242.187h-10c-.827 0-1.5-.673-1.5-1.5v-4c0-.827.673-1.5 1.5-1.5h10c.827 0 1.5.673 1.5 1.5v4c0 .827-.673 1.5-1.5 1.5zm-10-6a.5.5 0 0 0-.5.5v4a.5.5 0 0 0 .5.5h10a.5.5 0 0 0 .5-.5v-4a.5.5 0 0 0-.5-.5h-10z"/><path d="M57.245 239.187h-23a.5.5 0 0 1 0-1h23a.5.5 0 0 1 0 1zM99.787 239.187H69.245a.5.5 0 0 1 0-1h30.542a.5.5 0 0 1 0 1z"/></g><path d="M4.09 21.349c-6.204 0-13.72-3.088-22.411-9.219a.5.5 0 0 1-.172-.604c2.913-6.861 2.748-17.721-.492-32.28a.502.502 0 0 1 .38-.597.505.505 0 0 1 .597.38c3.227 14.508 3.425 25.443.59 32.513 10.043 7.02 18.406 9.865 24.857 8.459 4.209-.917 7.723-3.685 10.448-8.228-1.269-1.629-2.194-5.204-2.822-10.897a.5.5 0 0 1 .994-.109c.635 5.754 1.577 9.323 2.803 10.607a.5.5 0 0 1 .069.597c-2.896 4.977-6.692 8.007-11.279 9.007a16.708 16.708 0 0 1-3.562.371z" style="display:block" transform="translate(169.677 107.482)"/><path fill="#1F5E77" d="M-51.956 70.243s9.816-26.303 7.326-36.452c-2.365-9.636-2.992-11.468-2.992-11.468l-6.296 2.92s-9.036-38.827-7.046-68.399c.416-6.188.354-14.37 37.506-27.087 0 0 23.769 20.21 36.769 0 0 0 20.288 5.574 24.354 12.465 4.066 6.889 10.069 18.71 10.069 18.71L62.954.196 40.432 9.692l3.808 60.551h-96.196z" style="display:block" transform="translate(174.867 189.445)"/><path d="M4.396 24.553h-.078c-13.337-1.048-22.657-10.295-27.74-27.484-.557-2.302-.989-5.674-1.291-10.048a.5.5 0 0 1 .465-.533.509.509 0 0 1 .533.464c.298 4.318.721 7.635 1.258 9.858 4.948 16.727 13.972 25.734 26.815 26.744h.073c11.7 0 17.623-5.716 18.069-17.475l1.22-30.145a.511.511 0 0 1 .521-.48c.275.012.49.244.479.52L23.5 6.118c-.465 12.232-6.892 18.435-19.104 18.435z" style="display:block" transform="translate(172.638 85.271)"/><path d="M3.41 7.575c-2.913 0-5.133-.662-6.616-1.975-1.39-1.231-2.148-3.04-2.251-5.375-.114-2.563.488-4.516 1.787-5.805 1.388-1.376 3.577-1.995 6.509-1.843a.5.5 0 1 1-.053.999C.147-6.563-1.787-6.04-2.966-4.87-4.057-3.788-4.559-2.089-4.458.181c.091 2.054.735 3.625 1.915 4.671C-.998 6.22 1.542 6.777 5.013 6.511a.501.501 0 0 1 .077.997c-.583.045-1.144.067-1.68.067z" style="display:block" transform="translate(145.611 79.181)"/><path d="M2.324 8.965h-.013l-4.664-.12a.5.5 0 1 1 .026-1l4.005.104-4.106-16.24a.501.501 0 0 1 .97-.245L2.809 8.343a.506.506 0 0 1-.094.436.503.503 0 0 1-.391.186z" style="display:block" transform="translate(181.906 75.864)"/><path d="M3.107 3.601a.42.42 0 0 1-.07-.005C-1.48 2.961-3.64.7-3.382-3.124a.51.51 0 0 1 .533-.465.5.5 0 0 1 .465.532c-.22 3.254 1.599 5.106 5.56 5.663a.5.5 0 0 1-.069.995z" style="display:block" transform="rotate(-17 385.75 -542.329)"/><path d="M-5.016.04S-3.3-1.675.969-1.675c1.305 0 3.5 1.242 3.782 2.432 0 0 .711.918-3.25-.012C.382.482-1.444.518-2.581.675-5.463 1.073-5.016.04-5.016.04z" style="display:block" transform="translate(170.241 56.818)"/><path d="M-3.421.318s1.35-2.303 4.792-.786c1.784.786 2.05 2.453 2.05 2.453S-.142.568-1.462.769c-1.959.299-1.959-.451-1.959-.451z" style="display:block" transform="translate(190.329 60.966)"/><g style="display:block"><path d="M190.778 83.406c-.423 0-.848-.03-1.273-.09-2.624-.368-4.929-1.842-6.489-4.15-1.543-2.283-2.173-5.113-1.771-7.97.833-5.926 5.893-10.126 11.282-9.373 5.387.757 9.092 6.194 8.26 12.12-.401 2.856-1.787 5.404-3.9 7.173-1.79 1.498-3.921 2.29-6.109 2.29zm-1.064-1.575c2.201.311 4.405-.354 6.21-1.865 1.828-1.531 3.027-3.744 3.377-6.232.718-5.107-2.415-9.784-6.983-10.426-4.559-.64-8.87 2.99-9.587 8.097-.35 2.488.192 4.946 1.528 6.922 1.319 1.95 3.256 3.195 5.455 3.504zM170.77 80.593c-.423 0-.847-.029-1.272-.089-5.387-.757-9.093-6.194-8.26-12.12.401-2.856 1.785-5.404 3.898-7.173 2.135-1.788 4.756-2.57 7.382-2.2 5.387.757 9.094 6.194 8.261 12.12-.401 2.856-1.787 5.403-3.901 7.173-1.789 1.498-3.92 2.289-6.108 2.289zm.481-20.171c-1.838 0-3.635.67-5.151 1.939-1.828 1.531-3.027 3.744-3.377 6.232-.717 5.107 2.416 9.784 6.984 10.426 2.2.311 4.403-.354 6.209-1.866 1.828-1.53 3.028-3.743 3.378-6.231.717-5.107-2.417-9.784-6.985-10.426a7.537 7.537 0 0 0-1.058-.074z"/><path d="M148.781 72.857a.751.751 0 0 1-.233-1.463l13.301-4.35a.75.75 0 1 1 .467 1.426l-13.302 4.351a.754.754 0 0 1-.233.036zM182.812 69.118a.741.741 0 0 1-.467-.164c-.602-.478-1.204-.564-1.894-.27a.747.747 0 0 1-.984-.394.749.749 0 0 1 .394-.984c1.201-.514 2.382-.35 3.418.476a.749.749 0 0 1-.467 1.336z"/></g><path d="m22.84-25.602-23.654.004a3.964 3.964 0 0 0-3.519 2.14L-26.27 18.891c-1.341 2.588.476 5.69 3.389 5.785l26.879.875a3.966 3.966 0 0 0 3.767-2.386l18.713-43.231c1.133-2.617-.786-5.537-3.638-5.536zM12.635-13.801c-.438 2.514-3.007 4.717-5.772 4.649-2.859-.07-4.337-2.505-3.328-5.138.902-2.352 3.476-3.932 5.776-3.752 2.238.175 3.718 1.983 3.324 4.241z" style="display:block" transform="translate(267.662 161.969)"/><g style="display:block"><path fill="#FFD6B2" d="m233.406 191.536 2.672 18.036s26.723-23.434 28.912-24.304l.592-5.352s-2.483-1.288-2.924-3.111c0 0-6.936-2.347-5.818-3.868 1.117-1.52 6.904-.567 6.904-.567l5.048 1.88-1.926-2.647s-6.648-4.18-7.461-6.679c-.813-2.498 1.604-4.642 4.533-3.204 2.929 1.438 9.695 5.074 9.695 5.074l5.879 4.502.559-6.946s-12.531-4.615-7.593-8.354l12.072 4.526 2.642 12.31s-17.885 41.243-24.862 50.458c-6.979 9.216-31.349 38.752-44.086 22.673l-2.942-46.736 18.104-7.691z"/><path d="M227.408 251.169c-3.769 0-6.983-1.647-9.556-4.896l-.098-.123-2.972-47.245 19.023-8.082 2.633 17.768c4.626-4.049 24.825-21.683 28.085-23.639l.526-4.764c-.678-.406-2.287-1.5-2.798-2.995-1.335-.467-5.497-2.033-5.978-3.558a1.092 1.092 0 0 1 .164-.994c1.237-1.682 6.373-.933 7.389-.764l3.589 1.329-.896-1.232c-.996-.632-6.77-4.382-7.589-6.896-.428-1.318-.088-2.663.89-3.511 1.101-.956 2.764-1.069 4.339-.297 2.903 1.427 9.643 5.047 9.711 5.083l5.218 3.988.455-5.656c-1.757-.681-8.236-3.387-8.691-6.447-.144-.977.301-1.865 1.325-2.641l.22-.166 12.584 4.719 2.733 12.733-.063.148c-.731 1.685-17.988 41.403-24.923 50.56-4.87 6.433-21.802 27.431-35.179 27.577l-.141.001zm-8.675-5.396c2.357 2.917 5.275 4.396 8.677 4.396l.129-.001c12.922-.141 29.59-20.839 34.392-27.18 6.655-8.788 23.558-47.497 24.739-50.208l-2.552-11.886-11.547-4.33c-.569.491-.809.992-.73 1.526.348 2.338 6.184 4.973 8.403 5.791l.355.131-.661 8.239-6.608-5.06c-.014 0-6.728-3.606-9.613-5.022-1.222-.601-2.437-.545-3.242.153-.679.589-.901 1.504-.594 2.446.622 1.908 5.446 5.276 7.252 6.412l.138.129 2.9 3.988-6.601-2.459c-2.184-.349-5.683-.482-6.326.395-.029.038-.032.056-.017.102.24.762 3.089 2.149 5.591 2.996l.261.088.065.268c.382 1.577 2.647 2.773 2.669 2.785l.304.158-.662 5.992-.28.111c-1.547.614-18.051 14.817-28.767 24.215l-.691.604-2.711-18.303-17.181 7.3 2.908 46.224z"/><path d="M275.33 176.052a.502.502 0 0 1-.469-.324l-2.092-5.566-13.069-7.112a.502.502 0 0 1-.201-.679.503.503 0 0 1 .68-.2l13.396 7.29 2.223 5.915a.5.5 0 0 1-.468.676z"/></g><g style="display:block"><path fill="#FDDABB" d="M162.041 198.588s2.083 9.246 4.438 8.654c2.355-.591 23.808-17.253 23.808-17.253l18.235-17.062 15.078-21.932s4.044-9.81 15.291-4.486c11.248 5.323 8.537 10.04 8.537 10.04s-1.327 2.26-8.621 0c0 0 2.464 11.661-2.804 18.885l-6.689 6.581-40.55 43.946s-16.681 25.296-35.478 21.3c0 0-15.741-3.832-26.041-35.493l34.796-13.18z"/><path d="M166.2 207.657c-4.209-2.839-8.389-25.906-8.564-26.887l.984-.175c1.177 6.563 4.934 24.073 8.14 26.233l-.56.829z"/><path d="M162.601 220.111c-.036-.094-3.394-9.488 10.048-17.815 12.804-7.931 34.465-28.707 35.49-29.695.728-1.057 14.566-21.191 16.019-23.617.616-1.029 2.425-3.514 5.904-4.346 3.435-.823 7.466.201 11.979 3.04 4.065 2.557 7.593 5.133 6.125 8.516-1.076 2.483-2.531 2.188-5.722 1.534a76.957 76.957 0 0 0-3.714-.685c-5.784-.902-7.233.145-7.246.156l-.651-.759c.16-.142 1.747-1.366 8.051-.386 1.514.236 2.759.491 3.76.695 3.3.674 3.872.739 4.604-.953 1.049-2.417-1.208-4.42-5.74-7.272-4.277-2.69-8.053-3.669-11.214-2.913-3.109.744-4.727 2.966-5.279 3.887-1.5 2.505-15.485 22.847-16.08 23.712l-.064.076c-.225.217-22.554 21.72-35.695 29.859-12.707 7.872-9.77 16.261-9.639 16.613l-.936.353z"/><path d="M157.005 248.093c-1.254 0-2.523-.108-3.809-.34-15.151-2.733-25.973-34.476-26.426-35.826l.948-.318c.109.325 11.084 32.532 25.656 35.16 18.632 3.359 34.483-20.467 34.642-20.707.406-.466 36.334-40.848 45.04-48.258 8.44-7.185 5.297-21.001 5.264-21.14l.973-.23c.035.147.853 3.663.592 8.159-.348 5.994-2.484 10.826-6.181 13.973-8.653 7.365-44.536 47.695-44.897 48.101-.11.176-14.235 21.423-31.802 21.426z"/><path d="M232.455 163.6a.5.5 0 0 1-.27-.921c3.074-1.969 7.234-.609 7.41-.55.261.087.402.37.314.632a.498.498 0 0 1-.632.317c-.04-.013-3.885-1.265-6.552.443a.493.493 0 0 1-.27.079zM233.115 169.211a.499.499 0 0 1-.211-.953c3.57-1.656 6.109-.39 6.215-.335a.5.5 0 0 1-.456.89c-.098-.05-2.241-1.087-5.337.351a.498.498 0 0 1-.211.047z"/></g><path d="M-20.579.512s.481 25.91-5.634 23.312c-2.246-.955-2.964-2.349-2.964-2.349s-2.606-.672-4.323-.462c0 0-8.905-22.499 4.187-30.809 4.637-2.943 10.328-1.035 10.328-1.035s.643-8.73 11.515-9.192c0 0 13.508-6.399 31.691 4.86C42.405-3.904 26.219 5.423 26.219 5.423s3.786 8.815-8.802 9.358l.321-5.059S9.052 9.138 6.049 5.893C3.046 2.647-3.831-7.304-9.009-5.898c-5.178 1.406-11.57 6.41-11.57 6.41z" style="display:block" transform="translate(179.121 51.095)"/><path d="M1.817 0a1.816 1.816 0 1 1-3.632 0 1.816 1.816 0 0 1 3.632 0z" style="display:block" transform="matrix(1 0 0 .64761 171.744 73.101)"/><path d="M1.817 0a1.816 1.816 0 1 1-3.632 0 1.816 1.816 0 0 1 3.632 0z" style="display:block" transform="matrix(1 0 0 .64761 191.866 74.541)"/><path d="M.094 5.658-1.088-5.553l.994-.105L1.088 5.553l-.994.105z" style="display:block" transform="translate(207.416 167.407)"/></g></g></svg>